<?xml version="1.0" encoding="UTF-8"?>
<svg width="3110px" height="577px" viewBox="0 0 3110 577" version="1.1" xmlns="http://www.w3.org/2000/svg" xmlns:xlink="http://www.w3.org/1999/xlink">
    <!-- Generator: Sketch 55.2 (78181) - https://sketchapp.com -->
    <title>furien2</title>
    <desc>Created with Sketch.</desc>
    <g id="Page-1" stroke="none" stroke-width="1" fill="none" fill-rule="evenodd">
        <g id="furien2" fill="#135AA3" fill-rule="nonzero">
            <path d="M1028,1 C1032.74,1.32 1039.20667,1.80333333 1047.4,2.45 L1047.4,77.13 C1042.22667,76.4633333 1033.56,75.98 1021.4,75.68 C1009.24,75.38 1000.83333,78.0466667 996.18,83.68 C991.69076,88.9298707 989.210227,95.6025038 989.18,102.51 L989.18,207 L1062.18,207 L1062.18,271.7 L989.18,271.7 L989.18,554.64 L897.71,554.64 L897.71,271.65 L833.48,271.65 L833.48,207 L896.42,207 L896.42,109.68 C896.42,72.12 902.776667,46.26 915.49,32.1 C928.823333,11.0733333 961.04,0.56 1012.14,0.56 C1017.96,0.56 1023.24667,0.706666667 1028,1 Z" id="Path"></path>
            <path d="M1286.75,203.73 L1286.75,415.21 C1286.75,435.17 1289.10667,450.19 1293.81999,460.27 C1302.18,478.09 1318.57333,487 1343,487 C1374.28667,487 1395.73,474.333333 1407.33,449 C1413.33,435.266667 1416.33,417.133333 1416.33,394.6 L1416.33,203.73 L1509.74,203.73 L1509.74,554.59 L1420.2,554.59 L1420.2,505 C1419.34,506.073333 1417.19333,509.29 1413.76,514.65 C1410.38302,519.94355 1406.253,524.716991 1401.5,528.82 C1387.1,541.693333 1373.18667,550.49 1359.76,555.21 C1346.33333,559.93 1330.59333,562.29 1312.54,562.29 C1260.54,562.29 1225.51333,543.623333 1207.46,506.29 C1197.36,485.69 1192.31333,455.326667 1192.31999,415.2 L1192.31999,203.73 L1286.75,203.73 Z" id="Path"></path>
            <path d="M1886,195.53 C1887.18,195.63 1889.81333,195.79 1893.9,196.01 L1893.9,290.01 C1888.09,289.37 1882.9,288.94 1878.39,288.72 C1873.88,288.5 1870.2,288.4 1867.39,288.4 C1830.31667,288.4 1805.42667,300.416667 1792.72,324.45 C1785.57333,337.963333 1782,358.776667 1782,386.89 L1782,554.59 L1689.23,554.59 L1689.23,203.73 L1777.15,203.73 L1777.15,264.89 C1791.37,241.503333 1803.76333,225.503333 1814.33,216.89 C1831.56333,202.51 1853.97333,195.323333 1881.56,195.329995 C1883.29,195.37 1884.76,195.42 1886,195.53 Z" id="Path"></path>
            <path d="M2132.73,161.89 L2039.31,161.89 L2039.31,77.23 L2132.73,77.23 L2132.73,161.89 Z M2039.31,203.73 L2132.73,203.73 L2132.73,554.59 L2039.31,554.59 L2039.31,203.73 Z" id="Shape"></path>
            <path d="M2548.77,210.84 C2573.36333,221.8 2593.66333,239.103333 2609.67,262.75 C2624.09,283.59 2633.45,307.766667 2637.75,335.28 C2640.23,351.386667 2641.23,374.596667 2640.75,404.91 L2384.15,404.91 C2385.59667,440.096667 2397.88,464.763333 2421,478.91 C2435.08,487.71 2452.01333,492.11 2471.8,492.11 C2492.78667,492.11 2509.84,486.746667 2522.96,476.02 C2530.11333,470.22 2536.44667,462.173333 2541.96,451.88 L2635.96,451.88 C2633.48667,472.686667 2622.10333,493.823333 2601.81,515.29 C2570.26333,549.41 2526.07667,566.47 2469.25,566.47 C2422.35667,566.47 2380.99,552.08 2345.15,523.3 C2309.31,494.52 2291.38667,447.696667 2291.38,382.83 C2291.38,322.063333 2307.56333,275.46 2339.93,243.02 C2372.29667,210.58 2414.29667,194.363333 2465.93,194.369998 C2496.59,194.39 2524.20333,199.88 2548.77,210.84 Z M2411,290.08 C2397.98667,303.446667 2389.80667,321.553333 2386.46,344.4 L2545.17,344.4 C2543.49,320.04 2535.31,301.56 2520.63,288.96 C2505.95,276.36 2487.74,270.04 2466,270 C2442.33333,270 2424,276.693333 2411,290.08 Z" id="Shape"></path>
            <path d="M3075.43,223.85 C3098.47667,242.843333 3110,274.333333 3110,318.32 L3110,554.59 L3015.61,554.59 L3015.61,341.18 C3015.61,322.72 3013.15333,308.556667 3008.24,298.69 C2999.24667,280.69 2982.12667,271.69 2956.88,271.69 C2925.86667,271.69 2904.58333,284.886667 2893.03,311.28 C2887.03,325.233333 2884.03,343.046667 2884.03,364.72 L2884.03,554.63 L2791.9,554.63 L2791.9,204.38 L2881.12,204.38 L2881.12,255.56 C2892.93333,237.56 2904.09667,224.576667 2914.61,216.61 C2933.47667,202.45 2957.40333,195.37 2986.39,195.37 C3022.65667,195.37 3052.33667,204.863333 3075.43,223.85 Z" id="Path"></path>
            <polygon id="Path" points="735 10.33 163.35 10.33 0.02 10.33 0.02 173.18 0.02 201.68 0.02 344.19 0.02 372.69 0.02 494.83 0.02 576.26 163.35 576.26 163.35 494.83 326.68 494.83 326.68 372.69 163.35 372.69 163.35 344.19 453.26 344.19 453.26 201.68 163.35 201.68 163.35 173.18 597.75 173.18"></polygon>
        </g>
    </g>
</svg>